<svg xmlns="http://www.w3.org/2000/svg" viewBox="0 0 192.76 192.76"><path fill="none" d="M0 0h192.76v192.76H0V0z" clip-rule="evenodd"/><path fill="#cc2229" fill-rule="evenodd" d="M172.68 93.94a7.33 7.33 0 110 14.65 7.33 7.33 0 010-14.65zM48.42 83.78v7.43h8.81v-7.43h-8.8zm28.44.2c-1.58 0-2.87 1.24-2.87 2.87s1.3 2.87 2.87 2.87 2.88-1.24 2.88-2.87-1.3-2.87-2.87-2.87zm31.42 10.05a7.33 7.33 0 100 14.65 7.33 7.33 0 000-14.65zm-44.2-7.18a12.78 12.78 0 1125.57 0 12.54 12.54 0 01-5.55 10.44c1.96 3.16 4.88 5.65 7.56 7.95-.29-1.2-.62-2.59-.62-3.88 0-9.53 7.75-17.24 17.24-17.24 6.99 0 13.4 4.36 15.75 10.3 1.06 2.67 4.31 4.3 4.31-.3v-18.9h8.48V88c6.46-1.1 11.63-5.8 11.59-12.79h8.33c0 9.53-6.13 16.28-10.3 18.82 2.73 5.65 6.37 8.67 9.58 11.06a12.8 12.8 0 01-.58-3.83c0-9.53 7.76-17.24 17.24-17.24s17.24 7.71 17.24 17.24-7.8 17-17.24 16.9c-16.57-.14-26.24-6.8-34.23-21.5h-1.58l-.05 20.55h-8.48v-11.64l-8.81 8.72c-2.73 2.68-7.04 4.3-11.3 4.3-12.83 0-25.57-6.7-31.9-17.38-1.19-1.96-2.2-1.91-2.2-.1v15.9H64.08v-2.96c-1.1 1.77-4.36 2.97-6.85 2.97h-8.8v-11.3s-9.2 7.42-12.55 9.57a21.32 21.32 0 01-11.55 3.4 21.53 21.53 0 01-21.5-21.5c0-11.87 9.68-21.5 21.5-21.5 6.9 0 13.13 3.35 16.96 8.43L33 89.52a11.24 11.24 0 00-8.66-4.01A11.66 11.66 0 0012.7 97.19c0 6.46 5.6 11.25 11.97 11.2 2.2 0 4.4.05 6.8-1.77l16.95-12.78h8.81v13.07c4.02.34 6.85-2.53 6.85-5.36v-14.7z" clip-rule="evenodd"/><path fill="#33348e" fill-rule="evenodd" d="M18.01 103.08h12.7l-1.68 1.3h-9.58l-1.44-1.3zm-1.86-3.25H35.2l-1.92 1.29H16.63l-.48-1.3zm-.48-3.16H37.4l.86.62-.67.67H15.67v-1.3zm3.69-6.42h9.76l1.68 1.3H17.87l1.48-1.3zm-2.73 3.16h16.7l1.59 1.3H16.1l.52-1.3z" clip-rule="evenodd"/><path fill="#33348e" d="M29.12 103.86l8.7-6.53-8.7-6.67a7.73 7.73 0 00-2.27-1.15 8.59 8.59 0 00-2.61-.41c-2.26 0-4.31.91-5.8 2.4a8.15 8.15 0 00-2.39 5.79c0 2.27.92 4.31 2.4 5.79a8.17 8.17 0 005.79 2.4c.87 0 1.73-.16 2.54-.42a8.66 8.66 0 002.34-1.2zm.4.54a9.34 9.34 0 01-2.54 1.3 8.82 8.82 0 01-2.74.45 8.84 8.84 0 01-8.86-8.86 8.85 8.85 0 018.86-8.86c.96 0 1.92.16 2.81.44a8.42 8.42 0 012.46 1.25l9.06 6.95a.34.34 0 010 .53l-9.06 6.8z"/></svg>