<svg xmlns="http://www.w3.org/2000/svg" version="1.0" viewBox="0 0 100.06 49.92"><defs><clipPath id="a"><path d="M0 841.89h1785.83V0H0v841.89z"/></clipPath></defs><g clip-path="url(#a)" transform="matrix(1.25 0 0 -1.25 -1154.537 544.783)"><path fill="#f7a30a" fill-rule="evenodd" d="M924.58 415.86h19.17V396.7h-19.17v19.17z"/><path fill="#005ec4" fill-rule="evenodd" d="M943.75 435.03h19.17v-19.17h-19.17v19.17z"/><path fill="#231f20" d="M942.41 435.03h1.34V415.86H924.58v1.34h17.83v17.83zM943.75 415.86H962.92v-1.34H945.1V396.7h-1.34V415.86z"/><path fill="#636466" fill-rule="evenodd" d="M956.97 409.05h-.85c-.91-1.7-1.84-3.4-2.77-5.2-.83 1.8-1.67 3.5-2.51 5.2h-.97v-6.38h.74v5.2h.02c.26-.84 1.61-3.57 2.42-5.2h.37a73.1 73.1 0 012.63 5.2h.02v-5.2h.9v6.38zM961.5 403.1c-1.69 0-2.27 1.51-2.27 2.76 0 1.2.66 2.56 2.27 2.56 1.62 0 2.28-1.36 2.28-2.56 0-1.25-.58-2.77-2.28-2.77m0-.64c2.03 0 3.28 1.5 3.28 3.41 0 1.79-1.39 3.2-3.28 3.2a3.17 3.17 0 01-3.27-3.2c0-1.9 1.25-3.4 3.27-3.4M981.48 409.05h-4.02v-6.38h4.43v.64h-3.51v2.05h3.05v.64h-3.05v2.41h3.1v.64zM988.68 409.05h-.75v-5.09h-.02c-.44.64-2.88 3.43-4.33 5.1h-.68v-6.4h.76v5.09h.01c.4-.56 2.86-3.42 4.3-5.08h.71v6.38zM994.59 405.48v-2.16a3.04 3.04 0 00-1.34-.23c-1.43 0-2.57 1.08-2.57 2.7 0 1.5.96 2.62 2.67 2.62.73 0 1.33-.24 1.73-.5l.38.52c-.4.32-1.15.62-2.12.62-2.37 0-3.67-1.67-3.67-3.28 0-1.75 1.2-3.32 3.55-3.32.84 0 1.64.21 2.28.43v2.6h-.91zM997.88 409.05h-.92v-6.38h.92v6.38zM999.38 402.67h3.65v.64h-2.74v5.74h-.91v-6.38zM968.01 402.67v5.75h2.14v.63h-5.3v-.63h2.2v-5.75h.96z"/><path fill="#636466" d="M972.37 409.05l-2.61-6.38h.97l.95 2.7.22.63.67 1.91 2-5.24h1.1l-2.58 6.38h-.72z"/><path fill="#636466" fill-rule="evenodd" d="M972.2 405.36h4.7v.64h-4.47l-.23-.64z"/></g></svg>