<svg xmlns="http://www.w3.org/2000/svg" version="1.0" viewBox="-32.02 -33.83 277.46 202.95"><path fill="#143e70" d="M0 0h198.1c4.23 0 8.07 1.72 10.84 4.5a15.3 15.3 0 014.5 10.84V135.3H15.33A15.34 15.34 0 01.02 119.96z"/><path fill="#ffed00" fill-rule="evenodd" d="M50.22 26.46a9.3 9.3 0 019.3 9.3v64.83a9.3 9.3 0 01-9.3 9.3h-9.93v8.06H27.27V26.46zm42.16.55a9.3 9.3 0 019.3 9.3v64.28a9.3 9.3 0 01-9.3 9.3H78.74a9.3 9.3 0 01-9.3-9.3V36.31a9.3 9.3 0 019.3-9.3zm42.16 0a9.3 9.3 0 019.3 9.3v31.03a5.58 5.58 0 01-5.58 5.58 5.58 5.58 0 015.58 5.58v31.4h-13.02V83.45a3.1 3.1 0 00-3.1-3.1h-3.1v29.53H111.6V27.01zm42.17 0a9.3 9.3 0 019.3 9.3v31.03a5.58 5.58 0 01-5.59 5.58A5.58 5.58 0 01186 78.5v31.4h-13.02V83.45a3.1 3.1 0 00-3.1-3.1h-3.1v29.53h-13.02V27.01zM85.56 96.87a3.1 3.1 0 01-3.1-3.1V43.13a3.1 3.1 0 013.1-3.1 3.1 3.1 0 013.1 3.1v50.64a3.1 3.1 0 01-3.1 3.1m45.27-34.49a3.1 3.1 0 01-3.11 3.1h-3.1V40.03h3.1a3.1 3.1 0 013.1 3.1zm42.16 0a3.1 3.1 0 01-3.1 3.1h-3.1V40.03h3.1a3.1 3.1 0 013.09 3.1zM43.4 39.48a3.1 3.1 0 013.1 3.1v51.2a3.1 3.1 0 01-3.1 3.1h-3.1v-57.4z"/></svg>