<svg xmlns="http://www.w3.org/2000/svg" fill="none" viewBox="0 0 60 60"><path fill="#544E4E" d="M.18 18.46l2.2-2.21v-.15h.14L15.98 2.54l.03-.3a.6.6 0 01.6-.54h.2l.17-.17.26.17h.43a.6.6 0 01.6.55l.01.11 24.82 15.8h12.63l4.27 5.5h-6.68v14.23a1.31 1.31 0 01.58 1.94c.11.07.22.17.35.28.1.09.16.16.23.25l.1.13.05.07.03.03.04.1.16.4c.04.14.05.3.08.45a2.47 2.47 0 01-1.43 2.43l-.09.04-.04.02-.03.01-.05.03h-.03l-.24.06a2.29 2.29 0 01-1.35-.09c-.12-.05-.25-.1-.36-.17l-.3-.22c-.17-.15-.3-.33-.4-.48-.09-.17-.17-.32-.19-.44a5.39 5.39 0 01-.06-.37l.27.26c.09.1.22.15.32.24.13.07.28.15.43.2l.25.07.27.04a1.8 1.8 0 00.82-.12l.11-.05.05-.02.08-.05c.11-.06.25-.14.27-.19.06-.05.12-.08.18-.17a1.89 1.89 0 00.45-1.01v-.28l-.03-.27V41l.02.04-.01-.05-.03-.08-.05-.15c-.04-.1-.07-.22-.1-.26-.07-.09-.11-.19-.17-.28a1.31 1.31 0 01-2-1.11c0-.69.53-1.25 1.21-1.3V23.66H24.16a4.28 4.28 0 01-3.88 2.48h-.6v29.5h4.89v2.83H9.23v-2.83h5.15v-29.5h-2.12v-2.36H8.12v3.72H6.1v-3.72H4.4v3.72H2.37v-3.72H.61a.6.6 0 01-.61-.6v-4.3a.6.6 0 01.18-.42zM17.13 3.09l-.5 4.2.02-.01h.89l-.4-4.19zm.52 5.4h-1c-.06 0-.11-.02-.16-.03l-.35 2.92h1.8l-.29-2.9zm39.88 13.96l-2.05-2.65-2.05 2.65h4.1zm-3.25-3.08H48.1l4.36 2.37 1.83-2.37zm-3.07 3.08l-4.19-2.28-1.76 2.28h5.95zm-5.1-3.08h-6.95l5.1 2.4 1.85-2.4zm-3.24 3.08l-4.96-2.33-2.33 2.33h7.29zm-5.92-3.08h-5.48l3.13 2.35 2.35-2.35zm-3.4 3.08l-3.7-2.78-2.92 2.78h6.62zm-8.38 0h.21a.59.59 0 01.18-.37l2.86-2.71h-3.25v3.08zm-.6-6.75v2.46h16.28L18.43 3.89l.72 7.5h1.13v.02a4.29 4.29 0 014.29 4.29zm-8.98 39.64h2.4l-2.4-2.54v2.54zm2.87-1.27v-5.55l-2.32 3.1 2.32 2.45zm-2.87-3.74l2.59-3.45-2.6-2.6v6.05zm2.87-4.88v-5.9l-1.88 4.01 1.88 1.89zm-2.87-2.62l2.63-5.61-2.63-2.04v7.65zm2.87-6.96v-4.8l-1.83 3.38 1.83 1.42zm-2.87-2.04l2.6-4.8L15.6 27v6.83zm2.87-6.13v-1.56h-2l2 1.56zm-4.56-6.6h5.02a4.27 4.27 0 004.27-4.27c0-3.24-1.9-4.27-4.26-4.27H13.9v8.54zm-5.78 1.47h4.14v-3.08H8.12v3.08zm-3.73 0H6.1v-3.08H4.4v3.08zm0-6.47v2.18H6.1V16.1h2.02v2.18h4.14v-6.9h2.66l.82-6.89L4.22 16.1h.17zm-2.02 1.86l-.31.32h.31v-.32zm-1.16 4.6h1.16V19.5H1.21v3.08z"/></svg>