<svg xmlns="http://www.w3.org/2000/svg" fill="none" viewBox="0 0 36 36"><path fill="#000" fill-rule="evenodd" d="M35.62 22.24a.6.6 0 00-.66.14l-2.56 2.7v-16l2.45-2.64a.6.6 0 00-.04-.85l-.88-.82 1.23-1.32a.6.6 0 00-.04-.85L32.48.16a.6.6 0 00-.84.03l-4.27 4.6H6.6a3 3 0 00-3-3H3a3 3 0 00-3 3v25.8c0 .34.27.6.6.6h9.08l-1.26 1.52a.6.6 0 00.08.84l2.77 2.3a.6.6 0 00.84-.07l3.07-3.69c.22-.25.35-.56.4-.9h11L22.96 35a.6.6 0 00.43 1h12a.6.6 0 00.6-.6V22.8a.6.6 0 00-.38-.55zM33.56 6.06L32.4 7.3v-.88l.72-.78.44.4zm-2.36-.1l1.04-1.12-1.76-1.63-6.12 6.6 1.77 1.63 5.07-5.48zm-6.23 6.05l-1.38.4.3-1.4 1.08 1zm8.9-8.93L32.1 1.45l-.82.88 1.76 1.63.82-.88zM3 3h.6c1 0 1.8.8 1.8 1.8V27.6A2.97 2.97 0 003.6 27H3c-.65 0-1.28.22-1.8.61V4.8C1.2 3.8 2 3 3 3zm.6 25.2H3c-1 0-1.8.8-1.8 1.8h4.2c0-1-.8-1.8-1.8-1.8zm10.66 3.12l-.38.46-1.85-1.53.39-.46a.6.6 0 01.84-.08l.92.77a.6.6 0 01.08.84zm-4.53 1.7l1.84 1.53 1.54-1.84-1.84-1.54-1.54 1.85zm5.6-3.02c-.1-.17-.23-.32-.38-.44l-.92-.77a1.8 1.8 0 00-2.54.23l-.81.98H6.6V6h19.66l-3.18 3.44a.58.58 0 00-.13.23v.02l-.02.03-.72 3.43a.6.6 0 00.76.7l3.36-.99h.02l.02-.01.05-.03a.6.6 0 00.18-.12l4.6-4.97v18.6L27.71 30H15.32zm9.47 4.8h10V24.3l-10 10.5zm4-1.2a.6.6 0 01-.42-1.03l4.2-4.2a.6.6 0 011.02.43V33a.6.6 0 01-.6.6h-4.2zm3.6-1.2v-2.16l-2.15 2.16h2.15zm-10.2-9.6h4.2a.6.6 0 110 1.2H9.6a.6.6 0 110-1.2h4.2v-6.6a.6.6 0 01.18-.43l3.6-3.6a.6.6 0 01.84 0l3.6 3.6a.6.6 0 01.18.43v6.6zm-2.05-7.2L18 13.45l-2.15 2.15h4.3zM15 16.8h6v6h-6v-6zm2.4-7.2h1.2v1.2h-1.2V9.6zm1.2 15.6h-1.2v1.2h1.2v-1.2z" clip-rule="evenodd"/></svg>